<svg xmlns="http://www.w3.org/2000/svg" viewBox="0 0 32 32"><path fill="#8690fa" d="M16 31a15 15 0 1 1 15-15 15 15 0 0 1-15 15Zm0-29a14 14 0 1 0 14 14A14 14 0 0 0 16 2Z"/><circle cx="16" cy="16" r="12" fill="#cfd2fc"/><rect width="12.5" height="12.5" x="8.5" y="11" fill="#8690fa" rx="1.5" ry="1.5"/><path fill="#5153ff" d="M16.72 20h-3.94a2 2 0 0 0-2 2v1a.5.5 0 0 0 .5.5h7a.5.5 0 0 0 .5-.5v-1a2 2 0 0 0-2.06-2Z"/><path fill="#cfd2fc" d="M15.75 18.25h-2a.5.5 0 0 0-.5.5V21a.48.48 0 0 0 .2.4l1 .75a.5.5 0 0 0 .6 0l1-.75a.48.48 0 0 0 .2-.4v-2.25a.5.5 0 0 0-.5-.5Z"/><path fill="#cfd2fc" d="M17.25 16.55h-5a1.25 1.25 0 0 0 0 2.5h5a1.25 1.25 0 0 0 0-2.5Z"/><path fill="#cfd2fc" d="M15.83 15.3h-2.16a1.42 1.42 0 0 0-1.42 1.42v1.08a2.5 2.5 0 0 0 5 0v-1.08a1.42 1.42 0 0 0-1.42-1.42Z"/><path fill="#5153ff" d="M17.72 13.8h-2.84a2.63 2.63 0 0 0-2.63 2.63.5.5 0 0 0 .5.5h2.84a2.63 2.63 0 0 0 2.63-2.63.5.5 0 0 0-.5-.5Z"/><circle cx="20.5" cy="11.5" r="3" fill="#5153ff"/><path fill="#cfd2fc" d="M21.25 11H21v-.25a.5.5 0 0 0-1 0V11h-.25a.5.5 0 0 0 0 1H20v.25a.5.5 0 0 0 1 0V12h.25a.5.5 0 0 0 0-1Z"/></svg>