<svg xmlns="http://www.w3.org/2000/svg" fill-rule="evenodd" stroke-linejoin="round" stroke-miterlimit="2" clip-rule="evenodd" viewBox="0 0 32 32"><path d="M12 21.172V20h1-1v-4a3 3 0 0 1 3-3v1-1a3 3 0 0 1 3 3v3.279l3.949 1.316A3 3 0 0 1 24 23.442V29c0 .796-.316 1.559-.879 2.121A2.996 2.996 0 0 1 21 32h-6a2.996 2.996 0 0 1-2.121-.879A2.996 2.996 0 0 1 12 29v-.959l-2.5-1.443a3 3 0 0 1 2.5-5.426Z"/><path d="M22 17v-3.111a6 6 0 0 0-6-6v1-1a6.001 6.001 0 0 0-5.557 3.733 1.001 1.001 0 0 0 1.852.756A4.001 4.001 0 0 1 16 9.889v-1 1a4 4 0 0 1 4 4V17a1 1 0 0 0 2 0Z"/><path d="M26 20.001v-6c0-5.523-4.478-10-10-10v1-1c-5.522 0-10 4.477-10 10v6a1 1 0 0 0 2 0v-6a8 8 0 0 1 8-8V5v1a8 8 0 0 1 8 8v6a1 1 0 0 0 2 0Z"/><path d="M30 20v-6A13.997 13.997 0 0 0 16 0h-.003A13.995 13.995 0 0 0 2 13.998V20a1 1 0 0 0 2 0v-6.002A11.998 11.998 0 0 1 15.996 2H16a11.998 11.998 0 0 1 12 12v6a1 1 0 0 0 2 0Z"/></svg>